<?xml version="1.0" standalone="no"?>
<!DOCTYPE svg PUBLIC "-//W3C//DTD SVG 20010904//EN"
 "http://www.w3.org/TR/2001/REC-SVG-20010904/DTD/svg10.dtd">
<svg version="1.0" xmlns="http://www.w3.org/2000/svg"
 width="348.000000pt" height="403.000000pt" viewBox="0 0 348.000000 403.000000"
 preserveAspectRatio="xMidYMid meet">
<metadata>
Created by potrace 1.16, written by Peter Selinger 2001-2019
</metadata>
<g transform="translate(0.000000,403.000000) scale(0.100000,-0.100000)"
fill="#000000" stroke="none">
<path d="M1049 2724 c-1 -2 -2 -10 -3 -16 0 -7 -7 -13 -15 -13 -8 0 -18 -13
-23 -30 -12 -42 -16 -171 -8 -234 6 -47 -5 -62 -13 -16 -1 11 -5 25 -9 30 -3
6 -9 31 -13 55 -13 90 -24 76 -25 -32 0 -135 12 -192 62 -296 36 -76 56 -101
212 -261 200 -206 267 -295 302 -406 12 -38 13 -38 13 -10 1 137 -74 319 -184
445 -120 137 -188 257 -215 381 -17 76 -8 246 18 325 14 45 16 61 6 61 -7 0
-11 -7 -9 -16 1 -9 -6 -25 -17 -36 -19 -20 -19 -20 -12 0 7 17 6 18 -8 7 -10
-8 -19 -9 -22 -3 -7 11 -24 9 -46 -3 -8 -5 -12 -6 -8 -1 4 4 2 15 -5 23 -8 11
-8 14 0 9 6 -4 15 -2 19 5 5 8 10 6 15 -8 7 -18 8 -18 9 1 l1 20 9 -20 9 -20
1 20 1 20 9 -20 9 -20 1 20 1 20 10 -20 9 -20 -3 20 c-1 11 -7 20 -12 20 -6 0
-17 5 -25 10 -17 10 -39 16 -41 9z"/>
<path d="M2020 2536 c-55 -15 -114 -48 -109 -61 2 -5 14 -10 27 -11 14 -2 20
1 16 8 -4 7 -2 8 5 4 6 -4 9 -11 6 -16 -3 -5 -1 -11 5 -15 5 -3 10 1 10 9 0 8
3 17 8 19 4 3 7 -12 8 -33 0 -23 -4 -36 -9 -33 -6 3 -7 2 -4 -4 7 -12 -53 -11
-72 1 -10 7 -12 6 -6 -4 5 -8 4 -11 -3 -7 -5 4 -8 17 -5 30 4 19 3 20 -7 4 -6
-9 -8 -23 -4 -30 4 -7 3 -9 -2 -4 -5 5 -9 20 -9 33 -1 20 3 24 17 21 19 -5 25
8 8 18 -16 10 -40 -14 -33 -32 4 -11 2 -14 -5 -9 -6 3 -16 -3 -22 -14 -10 -18
-7 -24 13 -21 4 0 7 -5 7 -12 0 -9 2 -9 9 1 4 8 12 14 16 14 4 0 12 -6 16 -14
7 -11 9 -10 9 1 0 11 4 9 14 -5 11 -15 12 -22 3 -34 -10 -13 -10 -13 5 -2 10
8 17 17 16 20 -3 24 3 34 15 24 21 -18 47 10 42 46 -2 18 1 32 6 32 6 0 7 5 3
12 -4 7 -3 8 5 4 9 -6 9 -11 0 -22 -6 -8 -7 -14 -2 -14 6 0 9 -12 7 -26 -2
-25 -2 -25 17 -8 10 9 19 14 19 9 0 -4 6 -3 13 3 7 6 22 10 32 8 52 -8 -7
-200 -80 -265 -47 -41 -122 -78 -193 -95 -41 -10 -49 -15 -27 -15 46 -1 150
26 204 53 68 35 127 105 150 180 20 65 38 186 27 174 -4 -3 -8 -12 -10 -20 -1
-7 -5 -19 -9 -25 -5 -7 -5 -17 -2 -23 3 -5 1 -10 -4 -10 -6 0 -11 9 -11 20 0
11 -4 20 -9 20 -14 0 -4 40 14 60 13 14 13 17 1 17 -8 0 -14 -5 -13 -11 1 -6
-3 -10 -10 -9 -7 2 -10 -3 -7 -11 3 -7 -1 -18 -9 -24 -11 -9 -14 -8 -14 3 0 8
4 12 9 9 5 -3 6 7 2 22 -5 19 -4 25 4 20 8 -5 10 -1 5 9 -5 13 -7 14 -14 3 -6
-9 -9 -7 -9 9 0 12 -5 25 -12 29 -7 5 -9 2 -6 -8 4 -8 1 -15 -7 -15 -7 0 -11
6 -8 14 3 7 4 13 2 12 -2 0 -24 -6 -49 -13z"/>
<path d="M2499 2528 c-1 -2 -3 -21 -4 -43 -2 -22 -4 -40 -5 -40 -2 0 -7 -18
-20 -75 -12 -52 -13 -55 -29 -95 -27 -65 -65 -134 -73 -129 -7 5 -12 -10 -9
-28 0 -4 -4 -19 -9 -34 -9 -24 -9 -25 5 -14 8 7 15 8 15 3 0 -5 14 -9 32 -9
20 1 33 -4 35 -14 4 -13 3 -13 -6 0 -7 9 -11 10 -11 3 0 -27 20 -21 45 11 51
67 117 276 114 359 -2 28 -2 29 -6 7 -3 -14 -8 -29 -13 -35 -4 -5 -6 -19 -4
-30 2 -15 -4 -12 -27 15 l-29 34 -1 -44 c-1 -40 -2 -42 -8 -15 -4 17 -4 38 1
47 10 20 38 13 38 -9 0 -8 5 -11 10 -8 6 4 7 11 4 17 -4 6 -2 8 3 5 7 -4 9 5
6 26 -2 17 -4 37 -5 43 -1 6 -11 11 -22 10 -16 -1 -21 5 -20 22 1 18 -3 29 -7
20z"/>
<path d="M1843 1404 c-98 -16 -215 -68 -271 -120 -57 -53 -47 -55 83 -19 103
28 364 113 352 114 -8 1 -144 -32 -188 -45 -9 -2 -16 2 -16 9 0 9 7 12 19 9
10 -2 18 0 18 4 0 5 10 10 23 11 12 0 36 7 52 14 17 6 39 14 49 16 75 14 -40
21 -121 7z"/>
<path d="M1870 1263 c-55 -9 -185 -68 -242 -110 -33 -25 -58 -47 -55 -50 6 -5
100 12 167 32 141 41 268 101 269 128 1 7 -94 8 -139 0z"/>
<path d="M1833 1135 c-71 -20 -140 -56 -188 -99 -29 -25 -35 -35 -22 -36 37 0
208 43 324 82 97 33 119 44 106 52 -30 16 -164 17 -220 1z"/>
</g>
</svg>
